<svg width="19" height="13" viewBox="0 0 19 13" fill="none" xmlns="http://www.w3.org/2000/svg">
<g clip-path="url(#clip0)">
<rect width="19" height="13" rx="2" fill="white"/>
<path d="M0 2.11623V4.17094H2.97033L0 2.11623ZM2.46156 13.5556H6.86111V10.5123L2.46156 13.5556ZM12.1389 10.5129V13.5556H16.5379L12.1389 10.5129ZM0 9.38461V11.4393L2.97139 9.38461H0ZM16.539 0H12.1389V3.04322L16.539 0ZM19 11.4398V9.38461H16.0281L19 11.4398ZM19 4.17094V2.11623L16.0291 4.17094H19ZM6.86111 0H2.46156L6.86111 3.04322V0Z" fill="#00247D"/>
<path d="M13.2685 9.3846L18.3943 12.9304C18.6446 12.6757 18.8245 12.3617 18.9168 12.0185L15.1088 9.3846H13.2685ZM6.86126 9.3846H5.73129L0.606036 12.9299C0.881008 13.2062 1.23356 13.4038 1.62887 13.4956L6.86126 9.87625V9.3846ZM12.139 4.17092H13.269L18.3943 0.62562C18.1146 0.345268 17.7601 0.149104 17.372 0.0599365L12.139 3.67927V4.17092ZM5.73129 4.17092L0.606036 0.62562C0.355844 0.880556 0.175799 1.19446 0.0830078 1.53749L3.89092 4.17092H5.73129Z" fill="#CF1B2B"/>
<path d="M19 8.34188H11.0833V13.5556H12.1389V10.5129L16.5379 13.5556H16.8889C17.1693 13.5556 17.4469 13.5003 17.7053 13.393C17.9638 13.2856 18.198 13.1284 18.3941 12.9304L13.2683 9.38461H15.1087L18.9166 12.0186C18.9657 11.8429 19 11.6609 19 11.4701V11.4398L16.0281 9.38461H19V8.34188ZM0 8.34188V9.38461H2.97139L0 11.4393V11.4701C0 12.0389 0.231694 12.5535 0.605889 12.9299L5.73114 9.38461H6.86111V9.87626L1.62872 13.4951C1.78389 13.5316 1.94433 13.5556 2.11111 13.5556H2.46156L6.86111 10.5123V13.5556H7.91667V8.34188H0ZM19 2.08547C19.0003 1.53907 18.7826 1.01456 18.3941 0.625641L13.2689 4.17094H12.1389V3.67929L17.3718 0.0599573C17.2137 0.0216511 17.0517 0.00153181 16.8889 1.97274e-07H16.539L12.1389 3.04322V1.97274e-07H11.0833V5.21367H19V4.17094H16.0291L19 2.11623V2.08547ZM6.86111 1.97274e-07V3.04322L2.46156 1.97274e-07H2.11111C1.83066 -0.000120526 1.55302 0.0551677 1.29452 0.162612C1.03602 0.270056 0.801887 0.427487 0.605889 0.625641L5.73114 4.17094H3.89078L0.0828611 1.53751C0.0304951 1.71567 0.00262486 1.89997 0 2.08547L0 2.11623L2.97033 4.17094H0V5.21367H7.91667V1.97274e-07H6.86111Z" fill="#EEEEEE"/>
<path d="M11.0833 5.21367V0H7.91667V5.21367H0V8.34188H7.91667V13.5556H11.0833V8.34188H19V5.21367H11.0833Z" fill="#CF1B2B"/>
</g>
<defs>
<clipPath id="clip0">
<rect width="19" height="13" rx="2" fill="white"/>
</clipPath>
</defs>
</svg>
